<svg xmlns="http://www.w3.org/2000/svg" width="43.079" height="42.753" viewBox="0 0 43.079 42.753">
  <g id="그룹_7742" data-name="그룹 7742" transform="translate(-1543.481 -740.473)">
    <g id="그룹_7696" data-name="그룹 7696" transform="translate(1544.231 741.223)">
      <path id="패스_30" data-name="패스 30" d="M511.049,677.368A8.095,8.095,0,0,0,499.6,688.816l5.724,5.724,5.724-5.724A8.1,8.1,0,0,0,511.049,677.368Zm-7.623,7.623a2.686,2.686,0,1,1,3.8,0A2.686,2.686,0,0,1,503.425,684.991Z" transform="translate(-497.23 -674.997)" fill="rgba(255,221,51,0)" stroke="#fff" stroke-linecap="round" stroke-linejoin="round" stroke-width="1.5"/>
      <path id="패스_31" data-name="패스 31" d="M571.631,729.171a8.095,8.095,0,0,0-11.448,11.448l5.724,5.724,5.724-5.724A8.1,8.1,0,0,0,571.631,729.171Zm-7.623,7.623a2.686,2.686,0,1,1,3.8,0A2.686,2.686,0,0,1,564.008,736.794Z" transform="translate(-532.422 -705.089)" fill="#8bb929" stroke="#fff" stroke-linecap="round" stroke-linejoin="round" stroke-width="1.5"/>
      <path id="패스_32" data-name="패스 32" d="M509.663,721.628h7.7a5.13,5.13,0,0,1,5.13,5.131h0a5.13,5.13,0,0,1-5.13,5.131h-6.944a5.724,5.724,0,0,0-5.725,5.724h0a5.724,5.724,0,0,0,5.725,5.724h24.63" transform="translate(-501.568 -702.085)" fill="none" stroke="#fff" stroke-linecap="round" stroke-linejoin="round" stroke-width="1.5"/>
    </g>
  </g>
</svg>
