<svg xmlns="http://www.w3.org/2000/svg" width="41" height="41.138" viewBox="0 0 41 41.138">
  <g id="그룹_7741" data-name="그룹 7741" transform="translate(-1545 -591.625)">
    <g id="그룹_7698" data-name="그룹 7698" transform="translate(1545.106 592.375)">
      <path id="패스_2993" data-name="패스 2993" d="M76,320.983V302h7.232v8.136" transform="translate(-51.189 -291.152)" fill="none" stroke="#fff" stroke-linejoin="round" stroke-width="1.5"/>
      <path id="패스_2994" data-name="패스 2994" d="M64,327.063V290h7.232v37.063" transform="translate(-50.037 -290)" fill="none" stroke="#fff" stroke-linejoin="round" stroke-width="1.5"/>
      <path id="패스_2995" data-name="패스 2995" d="M52,328.983V310h7.232v18.983" transform="translate(-48.885 -291.921)" fill="none" stroke="#fff" stroke-linejoin="round" stroke-width="1.5"/>
      <line id="선_39" data-name="선 39" x2="41" transform="translate(-0.106 39.638)" fill="none" stroke="#fff" stroke-linejoin="round" stroke-width="1.5"/>
      <path id="패스_2996" data-name="패스 2996" d="M83.616,323.04a3.7,3.7,0,0,0,3.616-3.874v-1.293a3.624,3.624,0,1,0-7.232,0v1.293A3.7,3.7,0,0,0,83.616,323.04Z" transform="translate(-51.573 -292.305)" fill="#8ac651" stroke="#fff" stroke-miterlimit="10" stroke-width="1.5"/>
      <path id="패스_2997" data-name="패스 2997" d="M90.463,330.324v-2.749c0-2.493-4.831-3.616-7.232-3.616S76,325.082,76,327.575v2.749" transform="translate(-51.189 -293.261)" fill="#8ac651" stroke="#fff" stroke-miterlimit="10" stroke-width="1.5"/>
    </g>
  </g>
</svg>
