<svg xmlns="http://www.w3.org/2000/svg" width="58.5" height="23.9" viewBox="0 0 58.5 23.9">
  <g id="그룹_3" data-name="그룹 3" transform="translate(-117.503 -285.366)">
    <g id="그룹_2" data-name="그룹 2" transform="translate(131.943 303.986)">
      <g id="그룹_1" data-name="그룹 1" transform="translate(0 0)">
        <path id="패스_1" data-name="패스 1" d="M136.877,311.862c-.079,0-.158,0-.235,0s-.15-.008-.216-.015v1.99h-.886v-5.092h1.4a5.054,5.054,0,0,1,.613.033,2.7,2.7,0,0,1,.468.1,1.508,1.508,0,0,1,.762.51,1.425,1.425,0,0,1,.267.89,1.478,1.478,0,0,1-.144.664,1.379,1.379,0,0,1-.423.5,2.049,2.049,0,0,1-.681.315A3.438,3.438,0,0,1,136.877,311.862Zm-.452-.8c.05.007.115.014.193.017s.159.006.243.006a2.547,2.547,0,0,0,.6-.06,1.118,1.118,0,0,0,.391-.17.625.625,0,0,0,.213-.263.835.835,0,0,0,.065-.337.752.752,0,0,0-.1-.388.63.63,0,0,0-.34-.254,1.3,1.3,0,0,0-.312-.066,4.3,4.3,0,0,0-.457-.021h-.5Z" transform="translate(-135.539 -308.647)" fill="#fff"/>
        <path id="패스_2" data-name="패스 2" d="M148.569,312.535h-1.821l-.473,1.3h-.944l1.92-5.092h.809l1.921,5.092h-.937Zm-.917-2.568c-.168.532-.321.978-.453,1.335l-.165.453h1.25l-.164-.453c-.132-.36-.282-.8-.453-1.335Z" transform="translate(-137.492 -308.647)" fill="#fff"/>
        <path id="패스_3" data-name="패스 3" d="M159.884,312.347a.517.517,0,0,0-.09-.314.711.711,0,0,0-.246-.2,1.733,1.733,0,0,0-.349-.123c-.129-.032-.266-.063-.408-.094a5.084,5.084,0,0,1-.538-.153,1.514,1.514,0,0,1-.451-.247,1.137,1.137,0,0,1-.312-.4,1.426,1.426,0,0,1-.116-.609,1.676,1.676,0,0,1,.135-.7,1.376,1.376,0,0,1,.362-.5,1.514,1.514,0,0,1,.539-.292,2.29,2.29,0,0,1,.7-.1,3.807,3.807,0,0,1,.778.081,3.066,3.066,0,0,1,.671.2v.8a4.01,4.01,0,0,0-.721-.227,3.288,3.288,0,0,0-.649-.07,1.155,1.155,0,0,0-.673.167.576.576,0,0,0-.237.5.6.6,0,0,0,.078.32.63.63,0,0,0,.211.207,1.2,1.2,0,0,0,.307.131c.115.033.239.064.369.091.2.046.4.1.587.159a1.7,1.7,0,0,1,.5.248,1.113,1.113,0,0,1,.342.416,1.472,1.472,0,0,1,.127.656,1.623,1.623,0,0,1-.144.712,1.3,1.3,0,0,1-.411.5,1.829,1.829,0,0,1-.644.291,3.42,3.42,0,0,1-.831.094,3.635,3.635,0,0,1-.776-.082,2.193,2.193,0,0,1-.636-.23V312.8a3.526,3.526,0,0,0,.7.238,3.256,3.256,0,0,0,.7.075,2.237,2.237,0,0,0,.411-.038,1.2,1.2,0,0,0,.364-.122.713.713,0,0,0,.259-.239A.67.67,0,0,0,159.884,312.347Z" transform="translate(-139.888 -308.623)" fill="#fff"/>
        <path id="패스_4" data-name="패스 4" d="M170.769,312.347a.512.512,0,0,0-.09-.314.7.7,0,0,0-.247-.2,1.726,1.726,0,0,0-.348-.123q-.193-.048-.407-.094a5.209,5.209,0,0,1-.539-.153,1.528,1.528,0,0,1-.452-.247,1.133,1.133,0,0,1-.311-.4,1.426,1.426,0,0,1-.116-.609,1.715,1.715,0,0,1,.134-.7,1.408,1.408,0,0,1,.363-.5,1.521,1.521,0,0,1,.539-.292,2.279,2.279,0,0,1,.7-.1,3.788,3.788,0,0,1,.777.081,3.061,3.061,0,0,1,.672.2v.8a4.01,4.01,0,0,0-.721-.227,3.3,3.3,0,0,0-.65-.07,1.159,1.159,0,0,0-.673.167.577.577,0,0,0-.238.5.6.6,0,0,0,.078.32.65.65,0,0,0,.211.207,1.2,1.2,0,0,0,.309.131c.114.033.239.064.368.091.2.046.4.1.587.159a1.672,1.672,0,0,1,.5.248,1.14,1.14,0,0,1,.343.416,1.506,1.506,0,0,1,.126.656,1.622,1.622,0,0,1-.145.712,1.325,1.325,0,0,1-.408.5,1.864,1.864,0,0,1-.646.291,3.429,3.429,0,0,1-.833.094,3.649,3.649,0,0,1-.775-.082,2.2,2.2,0,0,1-.635-.23V312.8a3.548,3.548,0,0,0,.7.238,3.28,3.28,0,0,0,.7.075,2.27,2.27,0,0,0,.413-.038,1.2,1.2,0,0,0,.363-.122.726.726,0,0,0,.259-.239A.67.67,0,0,0,170.769,312.347Z" transform="translate(-142.059 -308.623)" fill="#fff"/>
      </g>
    </g>
    <path id="패스_5" data-name="패스 5" d="M178.611,301.332a7.983,7.983,0,1,1,7.985-7.982A7.991,7.991,0,0,1,178.611,301.332Zm0-11.024a3.041,3.041,0,1,0,3.041,3.042A3.046,3.046,0,0,0,178.611,290.308Z" transform="translate(-10.593)" fill="#f28427"/>
    <path id="패스_6" data-name="패스 6" d="M127.629,286.125,117.5,296.608l3.406,3.507,6.645-6.885,6.742,6.883,3.4-3.5Z" transform="translate(0 -0.151)" fill="#8bb929"/>
    <path id="패스_7" data-name="패스 7" d="M154.208,286.125l-10.126,10.482,3.4,3.5,6.646-6.883,6.742,6.883,3.4-3.5Z" transform="translate(-5.3 -0.151)" fill="#0099db"/>
  </g>
</svg>
